<?xml version="1.0" encoding="utf-8"?>
<!-- Generator: Adobe Illustrator 27.0.0, SVG Export Plug-In . SVG Version: 6.00 Build 0)  -->
<svg version="1.1" id="Layer_1" xmlns="http://www.w3.org/2000/svg" xmlns:xlink="http://www.w3.org/1999/xlink" x="0px" y="0px"
	 viewBox="0 0 710.2 530" style="enable-background:new 0 0 710.2 530;" xml:space="preserve">
<style type="text/css">
	.st0{fill:#F2F2F2;}
	.st1{fill:#FFFFFF;}
	.st2{fill:#E6E6E6;}
	.st3{fill:#FFB8B8;}
	.st4{fill:#2F2E41;}
	.st5{fill:#00A976;}
	.st6{fill:#CCCCCC;}
	.st7{fill:#3F3D56;}
	.st8{opacity:0.2;enable-background:new    ;}
</style>
<path class="st0" d="M696.6,362H166.4c-7.5,0-13.6-6.1-13.7-13.7V21.4c0-5.5,4.5-10,10-10h537.3c5.6,0,10.2,4.6,10.2,10.2v326.8
	C710.2,355.9,704.1,362,696.6,362z"/>
<path class="st1" d="M677.2,342.7H183.1c-7.2,0-13.1-5.5-13.1-12.3V45.7c0-5,4.4-9.1,9.7-9.1h500.8c5.5,0,9.9,4.2,9.9,9.3v284.6
	C690.4,337.2,684.5,342.7,677.2,342.7z"/>
<path class="st2" d="M710,20.6H152.5v-7c0-7.6,6.1-13.7,13.7-13.7h530.1c7.6,0,13.7,6.1,13.7,13.7V20.6z"/>
<circle class="st1" cx="177.4" cy="10.3" r="3.5"/>
<circle class="st1" cx="190.9" cy="10.3" r="3.5"/>
<circle class="st1" cx="204.3" cy="10.3" r="3.5"/>
<path class="st0" d="M391,262.7h264.6c7.3,0,13.2-5.9,13.2-13.2l0,0V129.8c0-7.3-5.9-13.2-13.2-13.2l0,0H391
	c-7.3,0-13.2,5.9-13.2,13.2v0v119.6C377.8,256.7,383.7,262.7,391,262.7L391,262.7z"/>
<path class="st1" d="M626.7,196.2h-211c-3.7,0-6.6-3-6.6-6.6c0-3.7,3-6.6,6.6-6.6h211c3.7,0,6.6,3,6.6,6.6
	C633.4,193.3,630.4,196.2,626.7,196.2z"/>
<path class="st1" d="M626.7,224.4h-211c-3.7,0-6.6-3-6.6-6.6c0-3.7,3-6.6,6.6-6.6h211c3.7,0,6.6,3,6.6,6.6
	C633.4,221.4,630.4,224.4,626.7,224.4z"/>
<path class="st1" d="M589.5,168.1H415.8c-3.7,0-6.6-3-6.6-6.6c0-3.7,3-6.6,6.6-6.6h173.7c3.7,0,6.6,3,6.6,6.6
	C596.1,165.1,593.2,168.1,589.5,168.1z"/>
<path class="st3" d="M261,316.2c1.1-5.4,6.5-8.9,11.9-7.8c0.6,0.1,1.1,0.3,1.7,0.5l23.5-27l5,17.9l-23,22.9c-2.4,5-8.5,7.1-13.5,4.7
	C262.3,325.4,260.1,320.8,261,316.2L261,316.2z"/>
<circle class="st3" cx="389.8" cy="165.1" r="24.6"/>
<polygon class="st3" points="360.9,503.2 348.7,503.2 342.9,455.9 361,455.9 "/>
<path class="st4" d="M364.1,515.1l-39.5,0v-0.5c0-8.5,6.9-15.4,15.4-15.4c0,0,0,0,0,0h0l24.1,0L364.1,515.1z"/>
<polygon class="st3" points="397.9,516.2 385.7,516.2 384,470.1 398,468.9 "/>
<path class="st4" d="M401.1,528.1l-39.5,0v-0.5c0-8.5,6.9-15.4,15.4-15.4c0,0,0,0,0,0h0l24.1,0L401.1,528.1z"/>
<path class="st4" d="M394.5,507.6l-9.5-1.1c-2.2-0.3-3.9-2.1-4-4.4l-1.8-124.3c0-0.8-0.7-1.5-1.5-1.5c-0.6,0-1.2,0.4-1.4,1
	L363,414.6l0.9,70.1c0,2.4-1.8,4.4-4.2,4.6l-12.5,0.5c-2.4,0.1-4.4-1.6-4.7-3.9l-6.5-79.3l0,0l9.9-82.8l74.2,5.4l-20.6,174.5
	c-0.3,2.3-2.2,4-4.5,4C394.8,507.6,394.6,507.6,394.5,507.6z"/>
<path class="st5" d="M346.2,331.1c-1.4-0.7-2.2-2.1-2.4-3.6c0,0,6.7-41.5,9.1-42.3l-5.3-44.4c-1.3-10.9,1.9-21.9,8.8-30.5
	c6.7-8.3,16.4-13.5,27-14.5c0.7-0.1,1.5-0.1,2.2-0.2c12.8-0.7,25.2,4.9,33.1,15.1c8.2,10.2,10.9,23.8,7.2,36.4l-3,10.4v73
	c0,1.4-0.7,2.8-1.9,3.7c-9.3,6.9-19.9,9.3-30.2,9.3C371.6,343.5,353.2,334.8,346.2,331.1z"/>
<path class="st5" d="M288.6,317.7l-12.9-9.6c-2-1.5-2.4-4.3-0.9-6.3c0.1-0.1,0.2-0.3,0.3-0.4l76.9-82.5c5.1-5.4,13.4-6.3,19.5-2.1
	l0,0c6.8,4.7,8.5,14.1,3.7,20.9c-0.5,0.8-1.1,1.5-1.8,2.1l-79,77.5c-1.4,1.4-3.6,1.7-5.4,0.7C288.9,317.9,288.7,317.8,288.6,317.7z"
	/>
<path class="st3" d="M387.3,306.8c2.1-5.1,8-7.6,13.1-5.4c0.5,0.2,1.1,0.5,1.6,0.8l28.1-22.1l1.5,18.5l-26.9,18.1
	c-3.3,4.5-9.6,5.4-14.1,2.1C386.9,316.1,385.5,311.1,387.3,306.8L387.3,306.8z"/>
<path class="st5" d="M412.5,315.4c-1.5-0.5-2.7-1.7-3-3.2l-2.8-11.9c-0.4-1.7,0.2-3.5,1.7-4.6l19.1-20.6l-28.1-43.3
	c-4.4-5.4-4.6-13-0.5-18.6c5-6.8,14.5-8.3,21.3-3.3c2.2,1.6,3.9,3.8,5,6.3l26.1,50.8c5.4,10.5,2.1,23.3-7.7,29.8l-26.7,17.8
	c-0.8,0.7-1.9,1.1-3,1.1C413.4,315.6,412.9,315.6,412.5,315.4z"/>
<path class="st4" d="M408,187.1c-2.1,1.3-4.8,0.6-6-1.5c-0.2-0.3-0.4-0.7-0.5-1.1l0-0.1c-0.5-2-0.1-4.2,0-6.3s-0.1-4.4-1.5-5.9
	c-2.7-2.9-7.4-1.3-11.3-2c-4.7-1-7.9-5.4-7.5-10.1c0.1-0.4,0.1-0.9,0.2-1.3c0.8-4-1.7-7.8-5.6-8.7c-0.7-0.1-1.3-0.2-2-0.1
	c-3.9,0.2-8.1,1.4-11.3-1.4c-2.4-2.3-3.2-5.9-2.1-9c1.8-5.3,7-8.1,12.1-9.7c12.9-3.8,26.8-1.6,37.8,6c3.3,2.3,6.3,5.1,7.7,8.9
	s0.8,8.4-2.3,10.9c5,5.2,6.8,12.6,4.8,19.5C419,180.1,411.7,184.9,408,187.1z"/>
<path class="st6" d="M434.9,530h-147c-0.6,0-1-0.4-1-1s0.4-1,1-1h147c0.6,0,0.4,1,1,1C436.1,529,435.5,530,434.9,530z"/>
<path class="st1" d="M273.3,117.8c-1.7-4.8-6.3-8-11.4-8H12.1c-6.7,0-12.1,5.4-12.1,12.1v191.7c0,6.7,5.4,12.1,12.1,12.1h249.8
	c6.7,0,12.1-5.4,12.1-12.1V121.9C274,120.5,273.8,119.1,273.3,117.8z"/>
<path class="st7" d="M273.3,117.8c-1.7-4.8-6.3-8-11.4-8H12.1c-6.7,0-12.1,5.4-12.1,12.1v191.7c0,6.7,5.4,12.1,12.1,12.1h249.8
	c6.7,0,12.1-5.4,12.1-12.1V121.9C274,120.5,273.8,119.1,273.3,117.8z M272.6,313.6c0,5.9-4.8,10.7-10.7,10.7H12.1
	c-5.9,0-10.7-4.8-10.7-10.7V121.9c0-5.9,4.8-10.7,10.7-10.7h249.8c5.9,0,10.7,4.8,10.7,10.7V313.6z"/>
<path class="st2" d="M254.8,135.6v133.9c0,1.9-1.5,3.4-3.4,3.4H24.1c-0.2,0-0.3,0-0.5,0c-1.7-0.2-2.9-1.7-2.9-3.3V135.6
	c0-1.9,1.5-3.4,3.4-3.4l0,0h227.2C253.2,132.2,254.8,133.8,254.8,135.6L254.8,135.6L254.8,135.6L254.8,135.6z"/>
<circle class="st5" cx="78.1" cy="182.3" r="29.6"/>
<path class="st7" d="M170.8,273.4h-145c-0.2,0-0.4,0-0.5,0l68.6-118.8c1.3-2.3,4.2-3.1,6.5-1.8c0.8,0.4,1.4,1.1,1.8,1.8l46,79.7
	l2.2,3.8L170.8,273.4z"/>
<polygon class="st8" points="170.8,273.4 121.3,273.4 145.6,238.1 147.3,235.5 148.2,234.3 150.4,238.1 "/>
<path class="st7" d="M251.5,273.4H126.1l24.3-35.3l1.7-2.5l31.7-46c2.1-3,7.1-3.2,9.5-0.6c0.2,0.2,0.3,0.4,0.5,0.6L251.5,273.4z"/>
</svg>
