<?xml version="1.0" encoding="utf-8"?>
<!-- Generator: Adobe Illustrator 27.0.0, SVG Export Plug-In . SVG Version: 6.00 Build 0)  -->
<svg version="1.1" id="Layer_1" xmlns="http://www.w3.org/2000/svg" xmlns:xlink="http://www.w3.org/1999/xlink" x="0px" y="0px"
	 viewBox="0 0 972.7 636.5" style="enable-background:new 0 0 972.7 636.5;" xml:space="preserve">
<style type="text/css">
	.st0{fill:#FFB6B6;}
	.st1{fill:#E6E6E6;}
	.st2{fill:#FFFFFF;}
	.st3{fill:#00A976;}
	.st4{fill:#E4E4E4;}
	.st5{fill:#2F2E41;}
	.st6{fill:#3F3D56;}
	.st7{fill:#CACACA;}
	.st8{fill:#9E616A;}
</style>
<path class="st0" d="M853.4,426.7c-3.6-4.3-3-10.6,1.3-14.2c0.5-0.4,0.9-0.7,1.5-1l-6.6-35.1l17.1,7.2l3.6,32.3
	c2.4,5,0.4,11.1-4.7,13.5C861.4,431.4,856.4,430.3,853.4,426.7L853.4,426.7z"/>
<rect id="f38b076b-59d8-4a3a-9764-ba710fdc09c8" x="61.1" y="20.6" class="st1" width="751.6" height="356.6"/>
<rect id="a3e272cc-df3f-4d80-b321-62d216886f20" x="82.6" y="51.2" class="st2" width="708.6" height="297.6"/>
<rect id="e835d13b-e721-4725-9202-bbf482b4bd3b" x="60.8" class="st3" width="751.6" height="31.9"/>
<circle id="be4979c6-1dab-43b6-a6ee-71cd46d62419" class="st2" cx="84.5" cy="14.8" r="5.9"/>
<circle id="b0ea5047-583b-4910-b1a7-8a4b76ab40b8" class="st2" cx="107" cy="14.8" r="5.9"/>
<circle id="f37d9a3e-ad35-4554-bb71-f31101cbe222" class="st2" cx="129.5" cy="14.8" r="5.9"/>
<path id="bb164f67-fbc5-46a9-bc53-51bf316e72eb-296" class="st1" d="M124.1,242.6c-1.7,0-3.1,1.4-3.1,3.1c0,1.7,1.4,3.1,3.1,3.1
	h170.4c1.7,0,3.1-1.4,3.1-3.1c0-1.7-1.4-3.1-3.1-3.1H124.1z"/>
<path id="a443cdab-5007-48b4-8b70-6d9701024bb2-297" class="st1" d="M124.1,261.3c-1.7,0-3.1,1.4-3.1,3.1c0,1.7,1.4,3.1,3.1,3.1h87
	c1.7,0,3.1-1.4,3.1-3.1c0-1.7-1.4-3.1-3.1-3.1H124.1z"/>
<path id="f7d6bd93-8cee-4d05-900c-0964279c7a84-298" class="st3" d="M294.7,296.4H230c-1.7,0-3.2-1.4-3.2-3.2v-10.4
	c0-1.7,1.4-3.2,3.2-3.2h64.7c1.7,0,3.2,1.4,3.2,3.2v10.4C297.9,295,296.4,296.4,294.7,296.4z"/>
<path id="b9375ed9-a91c-4567-8040-b14da9424350-299" class="st3" d="M294.7,188.4H230c-1.7,0-3.2-1.4-3.2-3.2v-10.4
	c0-1.7,1.4-3.2,3.2-3.2h64.7c1.7,0,3.2,1.4,3.2,3.2v10.4C297.9,187,296.4,188.4,294.7,188.4z"/>
<path id="e51c2c64-3ae5-421d-97d2-6993e1b4a0e1-300" class="st1" d="M408.8,103.2c-2.2,0-4,1.8-4,4.1c0,2.2,1.8,4,4,4h338.9
	c2.2,0,4-1.8,4-4.1c0-2.2-1.8-4-4-4H408.8z"/>
<path id="bb6ebd78-ef21-4bf3-8138-c36b4f5ae8d3-301" class="st1" d="M408.8,127.5c-2.2,0-4.1,1.8-4.1,4.1c0,2.2,1.8,4.1,4.1,4.1
	h230.1c2.2,0,4.1-1.8,4.1-4.1c0-2.2-1.8-4.1-4.1-4.1H408.8z"/>
<path id="b0279cb1-e051-4fdd-8ff4-a6bdaa244cb4-302" class="st1" d="M408.8,151.3c-2.2,0-4.1,1.8-4.1,4.1c0,2.2,1.8,4.1,4.1,4.1
	h338.9c2.2,0,4.1-1.8,4.1-4.1c0-2.2-1.8-4.1-4.1-4.1H408.8z"/>
<path id="b8fe22d0-d29e-4fd2-8057-acce26acd380-303" class="st1" d="M408.8,175.6c-2.2,0-4.1,1.8-4.1,4.1c0,2.2,1.8,4.1,4.1,4.1
	h230.1c2.2,0,4.1-1.8,4.1-4.1c0-2.2-1.8-4.1-4.1-4.1H408.8z"/>
<path id="e1b0698e-7706-4223-aefd-57a6dfde5692-304" class="st3" d="M748.7,228.2H684c-1.7,0-3.2-1.4-3.2-3.2v-10.4
	c0-1.7,1.4-3.2,3.2-3.2h64.7c1.7,0,3.2,1.4,3.2,3.2v10.4C751.9,226.8,750.4,228.2,748.7,228.2z"/>
<path id="f8f2501b-24d6-4bc5-9452-5f6747352c8d-305" class="st4" d="M197.5,107.6c-1.2,0-2.1,1.5-2.1,3.3c0,1.8,0.9,3.3,2.1,3.3
	h98.2c1.2,0,2.1-1.5,2.1-3.3c0-1.8-0.9-3.3-2.1-3.3H197.5z"/>
<path id="bf240ba4-7ac6-4616-9791-82be96e2dade-306" class="st4" d="M197.5,126.9c-1.2,0-2.1,1.5-2.1,3.3c0,1.8,0.9,3.3,2.1,3.3
	h98.2c1.2,0,2.1-1.5,2.1-3.3c0-1.8-0.9-3.3-2.1-3.3H197.5z"/>
<path id="a4452d36-433f-4f97-99ed-f04c2decb731-307" class="st4" d="M197.5,146c-1.2,0-2.1,1.5-2.1,3.3c0,1.8,0.9,3.3,2.1,3.3h42.2
	c1.2,0,2.1-1.5,2.1-3.3c0-1.8-0.9-3.3-2.1-3.3H197.5z"/>
<circle class="st4" cx="147.6" cy="129.9" r="26.6"/>
<path class="st0" d="M699.3,222.9c-0.7,5.5,3.2,10.6,8.7,11.3c0.6,0.1,1.2,0.1,1.8,0.1l13.3,33.2l10.6-15.3L719.4,223
	c-0.6-5.5-5.6-9.5-11.2-8.9C703.5,214.7,699.8,218.3,699.3,222.9z"/>
<polygon class="st0" points="849.4,621.8 837.1,621.8 831.3,574.5 849.4,574.5 "/>
<path class="st5" d="M852.5,633.6l-39.5,0v-0.5c0-8.5,6.9-15.4,15.4-15.4h0l24.1,0L852.5,633.6z"/>
<polygon class="st0" points="809.3,621.4 797.6,617.7 806.3,570.8 823.6,576.3 "/>
<path class="st5" d="M808.7,633.6L771,621.7l0.2-0.5c2.6-8.1,11.2-12.6,19.3-10l0,0l23,7.3L808.7,633.6z"/>
<path class="st5" d="M794.8,390.6c0,0-18.2,28.6-11.8,54.1s13.4,74.5,13.4,74.5l34.9,82.9l26-1.1l-25.8-97.8l1-65.4
	c0,0,17.9-31.2,14.4-41S794.8,390.6,794.8,390.6z"/>
<path class="st5" d="M854.2,400.9c0,0,2.2,28.3-4.8,40.3S835,498.9,835,498.9l-11.9,91.3l-24.6-8l21-102.3l16.5-80.5L854.2,400.9z"
	/>
<path class="st6" d="M862.9,263.7l-19.2-13.2l-29.3-0.8l-10.2,10l-15.5,7.9l-1.4,129.4c0,0,46.6,22.3,71.6,11.5l12.1-100.8
	C875.9,287.7,862.9,263.7,862.9,263.7z"/>
<path class="st6" d="M792.6,302.1h-51.3l-33.7-58l21.9-8.7l18.6,33l26.9-2.4l16.8-0.8c10.2-0.5,18.8,7.4,19.3,17.6
	c0.1,1,0,2.1-0.1,3.1l0,0C809.8,295.2,801.9,302.1,792.6,302.1z"/>
<circle class="st0" cx="831.5" cy="213.6" r="25.4"/>
<path class="st5" d="M862,207.8c-0.8-5.6-4.6-10.9-9.9-12.5c-2.1-6.2-7.8-10.7-14-12.7c-11.9-3.8-24.8,0.9-31.5,11.5
	c-0.5,0.8-1.9,2.6-1.9,3.5c0.1,1.1,1.8,2.3,2.7,3c2.2,1.7,4.5,3.1,7,4.3c9.1,4.7,6.1,12.2,6,20.6c-0.1,4.1,1.3,7.6,4.8,9.9
	c5,3.4,12.2,2,17.7,0.7c6.2-1.5,11.4-7,14.9-12.3C860.9,219.1,862.8,213.4,862,207.8z"/>
<polygon class="st6" points="862.2,296.7 872.1,405 840.4,403.3 "/>
<path class="st7" d="M971.5,636.5H583.2c-0.7,0-1.2-0.5-1.2-1.2c0-0.7,0.5-1.2,1.2-1.2h388.3c0.7,0,1.2,0.5,1.2,1.2
	C972.7,636,972.1,636.5,971.5,636.5z"/>
<polygon class="st8" points="84.1,624.7 93.6,624.7 98.1,588 84.1,588 "/>
<path class="st5" d="M81.7,621.6l18.7,0h0c6.6,0,11.9,5.3,11.9,11.9v0.4l-30.7,0L81.7,621.6z"/>
<polygon class="st8" points="171.7,624.7 181.2,624.7 185.8,588 171.7,588 "/>
<path class="st5" d="M169.3,621.6l18.7,0h0c6.6,0,11.9,5.3,11.9,11.9v0.4l-30.7,0L169.3,621.6z"/>
<polygon class="st8" points="160.3,330 166.5,369.6 107.5,370.3 115.3,332.3 "/>
<path class="st5" d="M164.8,359.9l18.8,50l2.3,207.2H170l-38-166.5L97,612.7H81.5l10.9-182.3c0,0-3.2-36.6,13.2-58.2l4-11.5
	L164.8,359.9z"/>
<path class="st8" d="M84.2,398.9c6.2-1.7,9.9-8.1,8.2-14.3c-0.2-0.7-0.4-1.3-0.7-1.9l25.1-81.8l-18.4-3.7l-22.9,80.1
	c-5.6,3.1-7.7,10.3-4.5,15.9C73.5,398,79,400.3,84.2,398.9L84.2,398.9z"/>
<path class="st6" d="M117.3,351.8c-0.3,0-0.7,0-1-0.1l0,0c-2.3-0.5-4.1-2.4-4.2-4.8c-0.6-8-3.5-21.9-8.6-41.3
	c-4.6-17.5,5.9-35.3,23.4-39.9c9.8-2.6,20.2-0.4,28.3,5.8c7,5.4,11.5,13.3,12.5,22.1c2.5,22.4-2.3,44.9-4.4,53.5c-0.6,2.3-2.6,4-5,4
	l-40.6,0.8C117.4,351.8,117.3,351.8,117.3,351.8z"/>
<path class="st8" d="M230.8,280c-0.2,0.5-0.4,1.1-0.6,1.7L179.4,299l-9.8-8.6l-14.9,13.1l15.9,16.9c2.6,2.8,6.8,3.5,10.2,1.8
	l54.4-27.8c5.4,3.3,12.4,1.6,15.6-3.7c3.3-5.4,1.6-12.4-3.7-15.6c-5.4-3.3-12.4-1.6-15.6,3.7C231.2,279.2,231,279.6,230.8,280
	L230.8,280z"/>
<path class="st6" d="M177.6,299.9L159,316.1c-2,1.8-5.1,1.6-6.9-0.5c-0.2-0.2-0.3-0.4-0.4-0.6l-13.3-20.7
	c-4.9-5.7-4.3-14.2,1.4-19.1c5.6-4.9,14.2-4.3,19.1,1.3l18.6,15.9c2,1.7,2.3,4.8,0.5,6.9C177.9,299.6,177.8,299.8,177.6,299.9
	L177.6,299.9z"/>
<path class="st6" d="M113.8,321.8l-22.9-9c-2.5-1-3.7-3.8-2.8-6.3c0.1-0.2,0.2-0.4,0.3-0.6l12.2-21.3c2.8-6.9,10.6-10.3,17.6-7.6
	c6.9,2.8,10.3,10.6,7.6,17.5l-5.5,23.8c-0.6,2.6-3.2,4.3-5.8,3.7C114.3,322,114,321.9,113.8,321.8L113.8,321.8z"/>
<circle class="st8" cx="130.8" cy="234.7" r="24.9"/>
<path class="st7" d="M389.5,636.5H1.2c-0.7,0-1.2-0.5-1.2-1.2c0-0.7,0.5-1.2,1.2-1.2h388.3c0.7,0,1.2,0.5,1.2,1.2
	C390.7,636,390.1,636.5,389.5,636.5z"/>
<path class="st5" d="M148,224.7c5.3,0,10.7-0.1,16-0.1c0.4-3.6-1.2-7.3-3.6-10.1c-2.5-2.7-5.3-5-8.4-7c-3.1-2.1-6.2-4.3-9.9-5
	c-3.1-0.6-6.2-0.2-9.3,0.2c-4.1,0.6-8.2,1.1-12.3,1.7c-4.5,0.6-9.2,1.3-12.8,4c-4.9,3.6-6.8,10-8.4,16l-8.8,32.8l51.9,5.4
	c1.9,0.3,3.8,0.3,5.7-0.2c1.9-0.5,3.3-2,3.6-4c0.1-2.1-1.5-3.8-2.9-5.5c-6.7-8.2-7.5-19.7-2.2-28.9L148,224.7z"/>
</svg>
