<?xml version="1.0" encoding="utf-8"?>
<!-- Generator: Adobe Illustrator 27.0.0, SVG Export Plug-In . SVG Version: 6.00 Build 0)  -->
<svg version="1.1" id="Layer_1" xmlns="http://www.w3.org/2000/svg" xmlns:xlink="http://www.w3.org/1999/xlink" x="0px" y="0px"
	 viewBox="0 0 913 441.9" style="enable-background:new 0 0 913 441.9;" xml:space="preserve">
<style type="text/css">
	.st0{fill:#FFFFFF;}
	.st1{fill:#E5E5E5;}
	.st2{fill:#00A976;}
	.st3{fill:#F0F0F0;}
	.st4{fill:#FFB7B7;}
	.st5{fill:#2F2E41;}
	.st6{fill:#FFB8B8;}
	.st7{fill:#3F3D56;}
	.st8{fill:#CCCCCC;}
	.st9{fill:#A0616A;}
	.st10{opacity:0.14;enable-background:new    ;}
	.st11{fill:#CACACA;}
</style>
<path class="st0" d="M124.2,353.3h686.6V5.7H124.2V353.3z"/>
<path class="st1" d="M816.5,358.9h-698V0h698V358.9z M129.9,347.6h675.3V11.3H129.9V347.6z"/>
<polygon class="st2" points="444.7,79.2 444.7,197.2 273.2,197.2 241.5,235.2 245.1,197.2 229.7,197.2 229.7,79.2 "/>
<polygon class="st3" points="548.5,86.2 548.5,161.8 658.4,161.8 678.8,186.2 676.4,161.8 686.3,161.8 686.3,86.2 "/>
<polygon class="st4" points="94.7,430.7 104.6,430.7 109.3,392.4 94.7,392.4 "/>
<path class="st5" d="M92.1,427.5l19.5,0h0c6.9,0,12.5,5.6,12.5,12.5v0.4l-32,0L92.1,427.5z"/>
<polygon class="st4" points="213.9,430.4 223.5,428 218.9,389.7 204.7,393.2 "/>
<path class="st5" d="M210.6,427.8l19-4.7l0,0c6.7-1.6,13.4,2.4,15.1,9.1l0.1,0.4l-31.1,7.6L210.6,427.8z"/>
<path class="st5" d="M88.6,421.6l2.1-10.5c0,0,3.8-40.7,31-81.3l8.9-44.1c0,0-2.6-33.4,22.8-51.5l7.8-5.4l27.5,1.6l6.3,34.7
	l12.8,82.1c0,0,3.3,0.3,4.5,9.8c2.5,4,4,8.5,4.3,13.2c0,0,6.5,18,8.3,31.3l-0.2,13l-13.8,7.4L182,340.4l-20.6-45.5
	c0,0-9.9,32.1-25.1,59.5c0,0-20.8,45-24.9,54.1l-4.5,15L88.6,421.6z"/>
<circle class="st4" cx="180.4" cy="139.2" r="19.6"/>
<circle class="st6" cx="180.4" cy="139.2" r="19.6"/>
<path class="st7" d="M153.3,234.3l6.5-16.2c-4.6-14.8-4.3-30.7,0.8-45.4l0,0l1.2-1c10.8-8.9,20.3-7.3,29.1,3.6l0,0
	c1.4,1.8,3.1,3.3,4.9,4.6c3.9,2.7,10,17.5,1.9,26.2l-6.5,37.9C191.9,265,176.7,257.1,153.3,234.3z"/>
<path class="st4" d="M246.2,212.3c-3.2-2.4-7.7-1.8-10.1,1.4c-0.3,0.3-0.5,0.7-0.7,1.1l-16.4-1.3l-3.2,9.8l23.1,1.5
	c3.7,1.6,7.9-0.1,9.5-3.8C249.9,217.8,248.9,214.3,246.2,212.3L246.2,212.3z"/>
<path class="st8" d="M230.5,228.1l-46.6-8.7l-15.2-25.4c-2-5.6,0.9-11.8,6.5-13.9s11.8,0.9,13.9,6.5l0,0l7.1,19.7l36.9,6.1
	L230.5,228.1z"/>
<circle class="st5" cx="145.4" cy="116.1" r="18.8"/>
<path class="st5" d="M129.1,131.6c8.4,6.1,20.2,4.2,26.3-4.2c1.2-1.7,2.2-3.6,2.8-5.7c-1.3,10.3-10.7,17.6-21,16.3
	c-10.3-1.3-17.6-10.7-16.3-21c0.1-1,0.3-2,0.6-3C120.6,120.9,123.6,127.6,129.1,131.6z"/>
<path class="st5" d="M203.4,131.7c-3.3-5.9-4.5-8.3-8.8-11.9c-3.7-3.2-8.4-4.1-12.1-1.1c-11.3-4.9-24.4,0.3-29.3,11.6
	c-4.9,11.3,0.3,24.4,11.6,29.3c11.3,4.9,24.4-0.3,29.3-11.6c1.2-2.8,1.8-5.8,1.8-8.8c0-0.8-0.1-1.7-0.2-2.5
	C199.1,136.1,200.2,132.1,203.4,131.7z"/>
<path class="st9" d="M782.2,272.5c0.2-4.9,4.4-8.7,9.3-8.5c0.5,0,1,0.1,1.6,0.2l11.8-16.6l11.8,4.7l-16.9,23.2
	c-1.4,4.7-6.4,7.4-11.1,6C784.7,280.4,782,276.7,782.2,272.5L782.2,272.5z"/>
<path class="st7" d="M795.2,258.3l20.9-35.2l-8.5-22.7l11.6-30.9l0.4,0.2c0.3,0.1,6.9,3.1,7.9,13.6l13.3,41.9l-35.6,46.2
	L795.2,258.3z"/>
<path class="st9" d="M681.6,129c4.9,0.6,8.3,5.1,7.7,9.9c-0.1,0.5-0.2,1-0.3,1.5l15.6,13l-5.6,11.4l-21.8-18.7
	c-4.6-1.8-6.9-6.9-5.1-11.6C673.6,130.8,677.5,128.4,681.6,129z"/>
<path class="st7" d="M694.8,142.9l33.4,23.6l23.3-6.7l30,14l-0.2,0.4c-0.1,0.3-3.6,6.6-14.2,6.8L724.3,191l-43.3-39L694.8,142.9z"/>
<polygon class="st9" points="756,429.5 744.4,429.5 738.8,384.7 756,384.7 "/>
<path class="st5" d="M736.1,426.2h22.4l0,0v14.1l0,0h-36.5l0,0l0,0C721.9,432.5,728.3,426.2,736.1,426.2L736.1,426.2z"/>
<polygon class="st9" points="802.5,429.5 790.8,429.5 785.3,384.7 802.5,384.7 "/>
<path class="st5" d="M782.5,426.2H805l0,0v14.1l0,0h-36.5l0,0l0,0C768.4,432.5,774.7,426.2,782.5,426.2L782.5,426.2z"/>
<polygon class="st5" points="806.6,265.8 805.7,332.2 804.7,419.5 783.8,417.6 773.4,297.1 760.1,417.6 738.6,417.6 736.4,296.2 
	744,269.6 "/>
<path class="st7" d="M741.9,270l-3.2-0.1l14.8-81.3l-6-24.6c-0.7-2.6,0.8-5.4,3.3-6.3l10.9-4.1l3.8-10.6l30.3,3.3l0.7,8.3
	c3.3,1.1,30.3,10.1,28.5,20.3c-1.8,10.1-12.7,42-13.3,43.6l-1.9,45.7l-0.2,0.1c-0.3,0.1-21.2,10.4-43.9,10.4
	C757.6,274.9,749.5,273.3,741.9,270z"/>
<circle class="st9" cx="779.5" cy="115.9" r="21.8"/>
<path class="st5" d="M797.2,137.1c-4.2,4.4-11.9,2.1-12.4-4c0-0.5,0-0.9,0-1.4c0.3-2.7,1.8-5.1,1.5-7.9c-0.1-0.7-0.3-1.4-0.8-2
	c-3.3-4.4-11.1,2-14.2-2c-1.9-2.5,0.3-6.3-1.1-9.1c-1.9-3.6-7.7-1.8-11.3-3.8c-4-2.2-3.8-8.4-1.1-12.1c3.2-4.6,8.9-7,14.5-7.4
	s11.1,1.2,16.3,3.2c5.9,2.3,11.8,5.5,15.4,10.7c4.4,6.3,4.9,14.8,2.6,22.2C805.2,128,800.6,133.5,797.2,137.1z"/>
<polygon class="st6" points="560.7,423.5 563.9,415.2 533.3,398.7 528.5,411 "/>
<path class="st5" d="M578,401.7c-5.8-2.2-12.3,0.6-14.5,6.4c0,0,0,0,0,0l-2.2,5.6l-3.4,8.7l-0.8,2.1l10.8,4.2l10.5-26.9L578,401.7z"
	/>
<path class="st5" d="M557.9,407.4l-1.4,3.7l-3.5,9.3l-0.1,0.2c-9,1.2-18.8-1.1-27.9-4.6c-3.6-1.4-7.2-3-10.7-4.8
	c-5.1-2.6-9.7-5.3-13.4-7.7c-5.5-3.5-9-6.2-9-6.2s-0.9,0.8-2.5,2.2c-2.2,1.9-5.7,4.8-10.1,8.2c-1.7,1.3-3.5,2.7-5.4,4.2
	c-14.3,10.6-32.7-17.7-32.7-17.7s5.2-3.3,6.5-3.9c4.3-2.1,14.6-6.9,23.4-11.2c4.5-2.2,8.7-4.3,11.5-5.8c9.9-5.3,22.2,4.7,22.2,4.7
	L557.9,407.4z"/>
<path class="st10" d="M557.9,407.4l-1.4,3.7l-3.5,9.3l-0.1,0.2c-9,1.2-18.8-1.1-27.9-4.6c-3.6-1.4-7.2-3-10.7-4.8
	c-5.1-2.6-9.7-5.3-13.4-7.7c-5.5-3.5-9-6.2-9-6.2s-0.9,0.8-2.5,2.2c-2.2,1.9-5.7,4.8-10.1,8.2c-1.7,1.3-3.5,2.7-5.4,4.2
	c-14.3,10.6-32.7-17.7-32.7-17.7s5.2-3.3,6.5-3.9c4.3-2.1,14.6-6.9,23.4-11.2c4.5-2.2,8.7-4.3,11.5-5.8c9.9-5.3,22.2,4.7,22.2,4.7
	L557.9,407.4z"/>
<path class="st5" d="M414.8,328.9h-42.3c-1.8,0-3.3-1.5-3.3-3.3v-18.3c0-13.5,10.9-24.5,24.4-24.5c13.5,0,24.5,10.9,24.5,24.4
	c0,0,0,0,0,0v18.3C418.1,327.5,416.6,328.9,414.8,328.9z"/>
<path class="st6" d="M455.1,351.9c-3.7,0.7-6.2,4.2-5.6,7.9c0.1,0.4,0.2,0.8,0.3,1.2l-11.5,10.6l4.7,8.6l16-15.2
	c3.5-1.5,5-5.6,3.5-9.1C461.3,352.9,458.2,351.3,455.1,351.9L455.1,351.9z"/>
<path class="st2" d="M420.4,400c-0.5,0-1,0-1.6-0.1c-6.3-0.5-11.9-4.3-14.8-9.9l-18.4-35.5c-2.6-5-0.6-11.1,4.3-13.7
	c4.7-2.4,10.4-0.9,13.3,3.5l17,38.2l23.2-18.8l13.4,5.2l-22.6,25C430.6,397.8,425.7,400,420.4,400z"/>
<polygon class="st6" points="558.1,435.2 562,427.2 532.7,408.4 527,420.3 "/>
<path class="st5" d="M577.1,414.9c-5.6-2.7-12.3-0.3-15,5.3c0,0,0,0,0,0l-2.6,5.4l-4,8.4l-1,2.1l10.5,5l12.5-26L577.1,414.9z"/>
<path class="st5" d="M556.6,419l-1.7,3.6l-4.2,9l-0.1,0.2c-9,0.5-18.7-2.5-27.5-6.7c-3.5-1.7-7-3.5-10.3-5.6
	c-4.9-3-9.3-6.1-12.8-8.7c-5.2-4-8.4-6.9-8.4-6.9s-1,0.7-2.7,2c-2.3,1.7-6,4.4-10.7,7.4c-1.8,1.2-3.7,2.4-5.8,3.7
	c-15.1,9.5-36.5,21-54.8,23.5c-32,4.3-24.5-38.5-24.5-38.5l25.5-13.2l10.8,2.2l12.1,2.4l4.3,0.9c0,0,0.8-0.3,2.2-0.8
	c4.5-1.7,15-5.8,24.1-9.4c4.7-1.9,9-3.6,11.9-4.9c10.3-4.5,21.8,6.4,21.8,6.4L556.6,419z"/>
<path class="st6" d="M346.5,441.7c3.7-0.8,6-4.5,5.1-8.2c-0.1-0.4-0.2-0.8-0.4-1.1l11-11.2l-5.2-8.3l-15.2,16
	c-3.4,1.7-4.8,5.9-3,9.2C340.2,440.9,343.4,442.4,346.5,441.7L346.5,441.7z"/>
<circle class="st6" cx="399.6" cy="312.7" r="17.1"/>
<path class="st2" d="M377.4,360.1l14.9,42.2l-0.1,0.1c-2.1,3.4-2.7,6.2-2,8c0.4,0.9,1.2,1.6,2.2,1.9l35.2-24.6l-1.2-9.9l0.1-0.1
	c3.4-5.4,4.5-10.4,3.3-14.6c-1.1-3.5-3.5-6.4-6.7-8.1l-0.1-0.1l-17.6-21.4l-23.5,4.2L377.4,360.1z"/>
<path class="st2" d="M354.8,434.1l-10-12.3l24-39.6l11.2-34.6l0.3,0.1l-0.3-0.1c2.4-7.3,10.2-11.3,17.5-8.9
	c7.3,2.4,11.3,10.2,8.9,17.5c-0.4,1.2-1,2.4-1.7,3.4l-20.6,30.8L354.8,434.1z"/>
<path class="st5" d="M423.9,309.2H398l-0.3-3.7l-1.3,3.7h-4l-0.5-7.4l-2.6,7.4h-7.7v-0.4c0-10.7,8.7-19.3,19.3-19.3h3.7
	c10.7,0,19.3,8.7,19.3,19.3L423.9,309.2z"/>
<path class="st5" d="M397.8,332.3c-0.2,0-0.4,0-0.6-0.1l-19-3.3v-31.3h20.9l-0.5,0.6c-7.2,8.4-1.8,22,2.1,29.3
	c0.6,1.1,0.5,2.4-0.3,3.4C399.8,331.8,398.8,332.3,397.8,332.3z"/>
<polygon class="st3" points="681,276.2 681,320.3 485.5,320.3 457.2,354.2 460.5,320.3 446.7,320.3 446.7,276.2 "/>
<circle class="st0" cx="528" cy="298.2" r="8"/>
<circle class="st0" cx="501" cy="298.2" r="8"/>
<circle class="st0" cx="474" cy="298.2" r="8"/>
<path class="st11" d="M912,441.2H1c-0.6,0-1-0.4-1-1s0.4-1,1-1h911c0.6,0,1,0.4,1,1S912.6,441.2,912,441.2z"/>
</svg>
